<svg width="102" height="16" viewBox="0 0 102 16" fill="none" xmlns="http://www.w3.org/2000/svg">
<path d="M3.11723 11.9318L0.184043 3.87993H1.84043L4.07196 10.3445L6.31498 3.87993H7.95987L5.02668 11.9318H3.11723ZM8.96069 11.9318V6.00793H10.5136V11.9318H8.96069ZM9.74288 5.26026C9.45915 5.26026 9.22526 5.1759 9.04121 5.0072C8.86484 4.83849 8.77665 4.62761 8.77665 4.37455C8.77665 4.12149 8.86484 3.91444 9.04121 3.7534C9.22526 3.59236 9.45915 3.51184 9.74288 3.51184C10.0189 3.51184 10.2452 3.59236 10.4215 3.7534C10.6056 3.91444 10.6976 4.12149 10.6976 4.37455C10.6976 4.62761 10.6056 4.83849 10.4215 5.0072C10.2452 5.1759 10.0189 5.26026 9.74288 5.26026ZM14.8543 12.0699C14.2715 12.0699 13.7577 11.9433 13.3129 11.6903C12.8758 11.4295 12.5308 11.073 12.2777 10.6205C12.0323 10.1604 11.9096 9.62745 11.9096 9.02164C11.9096 8.40816 12.0323 7.8637 12.2777 7.38826C12.5231 6.91281 12.8643 6.54089 13.3014 6.27249C13.7462 6.0041 14.2638 5.8699 14.8543 5.8699C15.4448 5.8699 15.9509 6.00026 16.3727 6.26099C16.7944 6.51405 17.1203 6.86297 17.3504 7.30774C17.5881 7.74484 17.707 8.24329 17.707 8.80309C17.707 8.87977 17.7031 8.96413 17.6955 9.05615C17.6955 9.14817 17.6916 9.24786 17.684 9.35522H13.0254V8.40049H16.1426C16.1273 8.00173 15.9969 7.69116 15.7515 7.46877C15.5138 7.23872 15.2147 7.12369 14.8543 7.12369C14.5936 7.12369 14.3559 7.18888 14.1411 7.31924C13.9264 7.4496 13.7539 7.64132 13.6235 7.89437C13.5008 8.13977 13.4395 8.45801 13.4395 8.8491V9.18268C13.4395 9.51242 13.497 9.79999 13.612 10.0454C13.727 10.2831 13.8881 10.471 14.0951 10.609C14.3098 10.7394 14.5591 10.8046 14.8428 10.8046C15.1419 10.8046 15.3796 10.747 15.556 10.632C15.7323 10.517 15.8665 10.3675 15.9586 10.1834H17.5459C17.4386 10.5362 17.2584 10.8582 17.0053 11.1496C16.7522 11.4334 16.4417 11.6596 16.0736 11.8283C15.7132 11.9893 15.3067 12.0699 14.8543 12.0699ZM19.9621 11.9318L18.2137 6.00793H19.7436L20.8593 10.54H20.7098L21.9406 6.00793H23.666L24.8968 10.54H24.7588L25.863 6.00793H27.4044L25.656 11.9318H24.0456L22.7228 7.26173H22.8838L21.5725 11.9318H19.9621ZM30.6167 11.9318L33.5499 3.87993H35.3098L38.243 11.9318H36.5981L34.4241 5.65135L32.2386 11.9318H30.6167ZM31.905 10.1029L32.3191 8.89511H36.4141L36.8166 10.1029H31.905ZM39.3005 11.9318V3.64988H40.8534V11.9318H39.3005ZM42.4008 11.9318V3.64988H43.9537V11.9318H42.4008ZM48.2766 11.9318V3.87993H50.8302C51.7657 3.87993 52.5364 4.04864 53.1422 4.38605C53.748 4.71579 54.1966 5.18357 54.488 5.78938C54.7871 6.38752 54.9366 7.09302 54.9366 7.90588C54.9366 8.71874 54.7871 9.42807 54.488 10.0339C54.1966 10.632 53.748 11.0998 53.1422 11.4372C52.5364 11.767 51.7657 11.9318 50.8302 11.9318H48.2766ZM49.8294 10.5975H50.7497C51.4015 10.5975 51.9153 10.4902 52.291 10.2754C52.6744 10.0607 52.9467 9.75398 53.1077 9.35522C53.2687 8.94879 53.3493 8.46568 53.3493 7.90588C53.3493 7.33841 53.2687 6.8553 53.1077 6.45654C52.9467 6.05011 52.6744 5.73953 52.291 5.52482C51.9153 5.3101 51.4015 5.20274 50.7497 5.20274H49.8294V10.5975ZM59.0116 12.0699C58.4288 12.0699 57.9151 11.9433 57.4703 11.6903C57.0332 11.4295 56.6881 11.073 56.435 10.6205C56.1897 10.1604 56.067 9.62745 56.067 9.02164C56.067 8.40816 56.1897 7.8637 56.435 7.38826C56.6804 6.91281 57.0217 6.54089 57.4588 6.27249C57.9036 6.0041 58.4212 5.8699 59.0116 5.8699C59.6021 5.8699 60.1082 6.00026 60.53 6.26099C60.9518 6.51405 61.2777 6.86297 61.5077 7.30774C61.7455 7.74484 61.8643 8.24329 61.8643 8.80309C61.8643 8.87977 61.8605 8.96413 61.8528 9.05615C61.8528 9.14817 61.849 9.24786 61.8413 9.35522H57.1827V8.40049H60.3C60.2846 8.00173 60.1543 7.69116 59.9089 7.46877C59.6711 7.23872 59.3721 7.12369 59.0116 7.12369C58.7509 7.12369 58.5132 7.18888 58.2985 7.31924C58.0838 7.4496 57.9112 7.64132 57.7809 7.89437C57.6582 8.13977 57.5968 8.45801 57.5968 8.8491V9.18268C57.5968 9.51242 57.6543 9.79999 57.7694 10.0454C57.8844 10.2831 58.0454 10.471 58.2525 10.609C58.4672 10.7394 58.7164 10.8046 59.0001 10.8046C59.2992 10.8046 59.5369 10.747 59.7133 10.632C59.8897 10.517 60.0239 10.3675 60.1159 10.1834H61.7033C61.5959 10.5362 61.4157 10.8582 61.1627 11.1496C60.9096 11.4334 60.599 11.6596 60.2309 11.8283C59.8705 11.9893 59.4641 12.0699 59.0116 12.0699ZM65.7379 11.9318C65.3314 11.9318 64.9748 11.8705 64.6681 11.7478C64.369 11.6174 64.1351 11.4065 63.9664 11.1151C63.7977 10.8161 63.7134 10.4096 63.7134 9.89585V7.30774H62.7011V6.00793H63.7134L63.8859 4.37455H65.2662V6.00793H66.8076V7.30774H65.2662V9.91885C65.2662 10.1796 65.3238 10.3598 65.4388 10.4595C65.5538 10.5592 65.7494 10.609 66.0254 10.609H66.8191V11.9318H65.7379ZM70.1133 12.0699C69.6455 12.0699 69.2544 11.9893 68.94 11.8283C68.6256 11.6673 68.3917 11.4525 68.2383 11.1841C68.0926 10.9081 68.0198 10.6052 68.0198 10.2754C68.0198 9.92268 68.108 9.61211 68.2844 9.34372C68.4684 9.06765 68.7406 8.85293 69.1011 8.69956C69.4691 8.54619 69.9292 8.46951 70.4814 8.46951H71.8847C71.8847 8.16277 71.8502 7.91355 71.7812 7.72183C71.7198 7.52245 71.6086 7.37675 71.4476 7.28473C71.2942 7.18504 71.0757 7.1352 70.7919 7.1352C70.5082 7.1352 70.2705 7.19654 70.0788 7.31924C69.8947 7.43427 69.7759 7.61448 69.7222 7.85987H68.2153C68.2614 7.45344 68.3956 7.10452 68.6179 6.81312C68.8403 6.51405 69.1394 6.284 69.5151 6.12296C69.8986 5.95425 70.328 5.8699 70.8035 5.8699C71.3556 5.8699 71.8272 5.96192 72.2183 6.14596C72.617 6.33001 72.9199 6.59457 73.127 6.93965C73.334 7.28473 73.4376 7.71033 73.4376 8.21645V11.9318H72.1378L71.9652 11.0461C71.8809 11.1918 71.7773 11.3298 71.6547 11.4602C71.5396 11.5829 71.4054 11.6903 71.2521 11.7823C71.1064 11.8743 70.9376 11.9433 70.7459 11.9893C70.5542 12.043 70.3433 12.0699 70.1133 12.0699ZM70.4814 10.8736C70.6731 10.8736 70.8456 10.8391 70.999 10.7701C71.16 10.6934 71.2981 10.5898 71.4131 10.4595C71.5281 10.3214 71.6201 10.1681 71.6892 9.99937C71.7582 9.83066 71.8042 9.64662 71.8272 9.44724V9.41273H70.6539C70.4239 9.41273 70.2322 9.44341 70.0788 9.50475C69.9331 9.5661 69.8257 9.65429 69.7567 9.76932C69.6877 9.87667 69.6532 10.0032 69.6532 10.1489C69.6532 10.3023 69.6877 10.4326 69.7567 10.54C69.8257 10.6474 69.9216 10.7317 70.0443 10.7931C70.1746 10.8467 70.3203 10.8736 70.4814 10.8736ZM75.0114 11.9318V6.00793H76.5642V11.9318H75.0114ZM75.7936 5.26026C75.5098 5.26026 75.2759 5.1759 75.0919 5.0072C74.9155 4.83849 74.8273 4.62761 74.8273 4.37455C74.8273 4.12149 74.9155 3.91444 75.0919 3.7534C75.2759 3.59236 75.5098 3.51184 75.7936 3.51184C76.0696 3.51184 76.2958 3.59236 76.4722 3.7534C76.6563 3.91444 76.7483 4.12149 76.7483 4.37455C76.7483 4.62761 76.6563 4.83849 76.4722 5.0072C76.2958 5.1759 76.0696 5.26026 75.7936 5.26026ZM78.1558 11.9318V3.64988H79.7087V11.9318H78.1558ZM83.6027 12.0699C83.0429 12.0699 82.5675 11.9855 82.1764 11.8168C81.793 11.6404 81.4977 11.4027 81.2907 11.1036C81.0836 10.8046 80.9648 10.4671 80.9341 10.0914H82.487C82.51 10.2371 82.5636 10.3713 82.648 10.494C82.74 10.609 82.8627 10.7049 83.0161 10.7816C83.1695 10.8506 83.3573 10.8851 83.5797 10.8851C83.7868 10.8851 83.9593 10.8582 84.0973 10.8046C84.2354 10.7432 84.3389 10.6627 84.4079 10.563C84.4769 10.4556 84.5114 10.3406 84.5114 10.2179C84.5114 10.0492 84.4654 9.91885 84.3734 9.82683C84.2814 9.72714 84.1433 9.65045 83.9593 9.59677C83.7829 9.53543 83.5682 9.48558 83.3152 9.44724C83.0007 9.38589 82.7055 9.31688 82.4294 9.24019C82.161 9.15584 81.9233 9.04848 81.7163 8.91812C81.5169 8.78775 81.3597 8.62288 81.2447 8.4235C81.1373 8.21645 81.0836 7.96723 81.0836 7.67582C81.0836 7.33841 81.1756 7.03167 81.3597 6.75561C81.5514 6.47954 81.8236 6.26483 82.1764 6.11146C82.5368 5.95042 82.9662 5.8699 83.4647 5.8699C84.1855 5.8699 84.7492 6.0271 85.1556 6.34151C85.562 6.65592 85.8036 7.08535 85.8803 7.62981H84.4194C84.3734 7.45344 84.266 7.31541 84.0973 7.21572C83.9363 7.11603 83.7216 7.06618 83.4532 7.06618C83.1695 7.06618 82.9509 7.11986 82.7975 7.22722C82.6518 7.32691 82.579 7.45727 82.579 7.61831C82.579 7.73334 82.6173 7.83686 82.694 7.92888C82.7784 8.0209 82.9087 8.10142 83.0851 8.17044C83.2615 8.23179 83.4915 8.28547 83.7753 8.33148C84.2737 8.4235 84.6916 8.53086 85.0291 8.65355C85.3665 8.76858 85.6234 8.94112 85.7997 9.17117C85.9838 9.40123 86.072 9.7233 86.0643 10.1374C86.072 10.5285 85.9723 10.8697 85.7652 11.1611C85.5658 11.4449 85.2821 11.6673 84.914 11.8283C84.5459 11.9893 84.1088 12.0699 83.6027 12.0699Z" fill="#12A150"/>
<g clip-path="url(#clip0_1_812)">
<path d="M94.1897 4.83923L97.7843 8.43383L94.1897 12.0284" stroke="#12A150" stroke-width="1.07838" stroke-linecap="round" stroke-linejoin="round"/>
</g>
<defs>
<clipPath id="clip0_1_812">
<rect width="11.5027" height="11.5027" fill="white" transform="translate(89.8757 2.68048)"/>
</clipPath>
</defs>
</svg>
