<svg width="24" height="24" viewBox="0 0 24 24" fill="none" xmlns="http://www.w3.org/2000/svg">
<g clip-path="url(#clip0_1_920)">
<path d="M0.693958 11.8564C0.6934 13.8728 1.22028 15.8418 2.22214 17.5772L0.598145 23.5067L6.66624 21.9156C8.3446 22.8293 10.2251 23.308 12.136 23.3082H12.141C18.4494 23.3082 23.5846 18.1749 23.5873 11.8654C23.5885 8.808 22.3989 5.93302 20.2376 3.77005C18.0767 1.60726 15.2027 0.415534 12.1406 0.414139C5.83145 0.414139 0.696656 5.54716 0.694052 11.8564" fill="url(#paint0_linear_1_920)"/>
<path d="M0.28557 11.8527C0.284919 13.9417 0.830686 15.981 1.86827 17.7786L0.186035 23.9207L6.47171 22.2726C8.20362 23.2168 10.1536 23.7147 12.1378 23.7154H12.1429C18.6776 23.7154 23.9972 18.3975 24 11.8621C24.0011 8.69488 22.7687 5.71656 20.5302 3.47609C18.2914 1.23591 15.3147 0.00130233 12.1429 0C5.60706 0 0.288175 5.31721 0.28557 11.8527ZM4.02892 17.469L3.79422 17.0965C2.80762 15.5277 2.28687 13.7149 2.28762 11.8534C2.28966 6.4213 6.7105 2.00186 12.1466 2.00186C14.7792 2.00298 17.2532 3.02921 19.114 4.89116C20.9748 6.7533 21.9987 9.22865 21.998 11.8614C21.9956 17.2935 17.5747 21.7135 12.1429 21.7135H12.139C10.3703 21.7126 8.63571 21.2376 7.12297 20.34L6.76297 20.1265L3.03292 21.1045L4.02892 17.469Z" fill="url(#paint1_linear_1_920)"/>
<path d="M9.17907 6.89749C8.95712 6.40418 8.72354 6.39423 8.51247 6.38558C8.33963 6.37814 8.14205 6.37869 7.94465 6.37869C7.74707 6.37869 7.42605 6.45302 7.1547 6.7493C6.88307 7.04586 6.11768 7.76251 6.11768 9.22009C6.11768 10.6777 7.17935 12.0864 7.32735 12.2843C7.47554 12.4818 9.37693 15.5686 12.3883 16.7562C14.891 17.7431 15.4003 17.5468 15.9434 17.4973C16.4867 17.448 17.6964 16.7808 17.9432 16.089C18.1901 15.3973 18.1901 14.8044 18.1161 14.6805C18.042 14.557 17.8445 14.4829 17.5482 14.3348C17.2519 14.1867 15.7953 13.4699 15.5237 13.371C15.2521 13.2722 15.0546 13.2229 14.857 13.5195C14.6594 13.8157 14.0921 14.4829 13.9192 14.6805C13.7464 14.8785 13.5735 14.9032 13.2773 14.755C12.9808 14.6063 12.0267 14.2939 10.8947 13.2846C10.014 12.4993 9.41935 11.5296 9.24651 11.2329C9.07368 10.9367 9.228 10.7762 9.37656 10.6286C9.50968 10.4958 9.67293 10.2826 9.82121 10.1097C9.96893 9.93665 10.0182 9.81321 10.117 9.61562C10.2159 9.41786 10.1664 9.24483 10.0925 9.09665C10.0182 8.94846 9.44251 7.48325 9.17907 6.89749Z" fill="white"/>
</g>
<defs>
<linearGradient id="paint0_linear_1_920" x1="1150.05" y1="2309.67" x2="1150.05" y2="0.414139" gradientUnits="userSpaceOnUse">
<stop stop-color="#1FAF38"/>
<stop offset="1" stop-color="#60D669"/>
</linearGradient>
<linearGradient id="paint1_linear_1_920" x1="1190.88" y1="2392.07" x2="1190.88" y2="0" gradientUnits="userSpaceOnUse">
<stop stop-color="#F9F9F9"/>
<stop offset="1" stop-color="white"/>
</linearGradient>
<clipPath id="clip0_1_920">
<rect width="23.814" height="24" fill="white" transform="translate(0.186035)"/>
</clipPath>
</defs>
</svg>
